<mxfile host="app.diagrams.net" agent="Mozilla/5.0 (Windows NT 10.0; Win64; x64) AppleWebKit/537.36 (KHTML, like Gecko) Chrome/137.0.0.0 Safari/537.36" version="27.1.5">
  <diagram name="Page-1" id="mZZ9U-iCEmFpbeflf6cJ">
    <mxGraphModel dx="1665" dy="749" grid="1" gridSize="10" guides="1" tooltips="1" connect="1" arrows="1" fold="1" page="1" pageScale="1" pageWidth="2000" pageHeight="2000" math="0" shadow="0">
      <root>
        <mxCell id="0" />
        <mxCell id="1" parent="0" />
        <mxCell id="pFfIeQWjEjDmzI_lSesy-22" style="edgeStyle=orthogonalEdgeStyle;rounded=0;orthogonalLoop=1;jettySize=auto;html=1;exitX=0.5;exitY=1;exitDx=0;exitDy=0;entryX=0.5;entryY=0;entryDx=0;entryDy=0;strokeColor=light-dark(#000000,#3333FF);" edge="1" parent="1" source="pFfIeQWjEjDmzI_lSesy-1" target="pFfIeQWjEjDmzI_lSesy-5">
          <mxGeometry relative="1" as="geometry" />
        </mxCell>
        <mxCell id="pFfIeQWjEjDmzI_lSesy-1" value="Extrage mesaj din imagine" style="rounded=0;whiteSpace=wrap;html=1;" vertex="1" parent="1">
          <mxGeometry x="700" y="180" width="120" height="60" as="geometry" />
        </mxCell>
        <mxCell id="pFfIeQWjEjDmzI_lSesy-3" style="edgeStyle=orthogonalEdgeStyle;rounded=0;orthogonalLoop=1;jettySize=auto;html=1;exitX=1;exitY=0.5;exitDx=0;exitDy=0;entryX=0.5;entryY=0;entryDx=0;entryDy=0;strokeColor=light-dark(#000000,#3333FF);" edge="1" parent="1" source="pFfIeQWjEjDmzI_lSesy-5" target="pFfIeQWjEjDmzI_lSesy-8">
          <mxGeometry relative="1" as="geometry">
            <mxPoint x="905" y="370" as="targetPoint" />
          </mxGeometry>
        </mxCell>
        <mxCell id="pFfIeQWjEjDmzI_lSesy-4" style="edgeStyle=orthogonalEdgeStyle;rounded=0;orthogonalLoop=1;jettySize=auto;html=1;exitX=0;exitY=0.5;exitDx=0;exitDy=0;entryX=0.5;entryY=0;entryDx=0;entryDy=0;strokeColor=light-dark(#000000,#3333FF);" edge="1" parent="1" source="pFfIeQWjEjDmzI_lSesy-5" target="pFfIeQWjEjDmzI_lSesy-16">
          <mxGeometry relative="1" as="geometry">
            <mxPoint x="615" y="370" as="targetPoint" />
          </mxGeometry>
        </mxCell>
        <mxCell id="pFfIeQWjEjDmzI_lSesy-5" value="Foloseste standard LSB" style="rhombus;whiteSpace=wrap;html=1;" vertex="1" parent="1">
          <mxGeometry x="697.5" y="320" width="125" height="110" as="geometry" />
        </mxCell>
        <mxCell id="pFfIeQWjEjDmzI_lSesy-6" style="edgeStyle=orthogonalEdgeStyle;rounded=0;orthogonalLoop=1;jettySize=auto;html=1;exitX=1;exitY=0.5;exitDx=0;exitDy=0;entryX=0.5;entryY=0;entryDx=0;entryDy=0;strokeColor=light-dark(#000000,#3333FF);" edge="1" parent="1" source="pFfIeQWjEjDmzI_lSesy-8" target="pFfIeQWjEjDmzI_lSesy-11">
          <mxGeometry relative="1" as="geometry">
            <mxPoint x="1075" y="460" as="targetPoint" />
          </mxGeometry>
        </mxCell>
        <mxCell id="pFfIeQWjEjDmzI_lSesy-7" style="edgeStyle=orthogonalEdgeStyle;rounded=0;orthogonalLoop=1;jettySize=auto;html=1;exitX=0;exitY=0.5;exitDx=0;exitDy=0;entryX=0.5;entryY=0;entryDx=0;entryDy=0;strokeColor=light-dark(#000000,#3333FF);" edge="1" parent="1" source="pFfIeQWjEjDmzI_lSesy-8" target="pFfIeQWjEjDmzI_lSesy-12">
          <mxGeometry relative="1" as="geometry">
            <mxPoint x="825" y="460" as="targetPoint" />
          </mxGeometry>
        </mxCell>
        <mxCell id="pFfIeQWjEjDmzI_lSesy-8" value="Foloseste cheie shuffle" style="rhombus;whiteSpace=wrap;html=1;" vertex="1" parent="1">
          <mxGeometry x="875" y="400" width="120" height="120" as="geometry" />
        </mxCell>
        <mxCell id="pFfIeQWjEjDmzI_lSesy-9" value="&lt;font style=&quot;color: light-dark(rgb(0, 0, 0), rgb(153, 153, 255));&quot;&gt;NU&lt;/font&gt;" style="text;html=1;align=center;verticalAlign=middle;resizable=0;points=[];autosize=1;strokeColor=none;fillColor=none;" vertex="1" parent="1">
          <mxGeometry x="995" y="428" width="40" height="30" as="geometry" />
        </mxCell>
        <mxCell id="pFfIeQWjEjDmzI_lSesy-10" value="&lt;font style=&quot;color: light-dark(rgb(0, 0, 0), rgb(153, 153, 255));&quot;&gt;NU&lt;/font&gt;" style="text;html=1;align=center;verticalAlign=middle;resizable=0;points=[];autosize=1;strokeColor=none;fillColor=none;" vertex="1" parent="1">
          <mxGeometry x="835" y="340" width="40" height="30" as="geometry" />
        </mxCell>
        <mxCell id="pFfIeQWjEjDmzI_lSesy-11" value="Extragere mesaj folosind multichannel" style="rounded=0;whiteSpace=wrap;html=1;" vertex="1" parent="1">
          <mxGeometry x="985" y="540" width="130" height="60" as="geometry" />
        </mxCell>
        <mxCell id="pFfIeQWjEjDmzI_lSesy-12" value="Extragere mesaj folosind multichannel + shuffle" style="rounded=0;whiteSpace=wrap;html=1;" vertex="1" parent="1">
          <mxGeometry x="775" y="540" width="135" height="60" as="geometry" />
        </mxCell>
        <mxCell id="pFfIeQWjEjDmzI_lSesy-13" value="&lt;font style=&quot;color: light-dark(rgb(0, 0, 0), rgb(153, 153, 255));&quot;&gt;DA&lt;/font&gt;" style="text;html=1;align=center;verticalAlign=middle;resizable=0;points=[];autosize=1;strokeColor=none;fillColor=none;" vertex="1" parent="1">
          <mxGeometry x="835" y="428" width="40" height="30" as="geometry" />
        </mxCell>
        <mxCell id="pFfIeQWjEjDmzI_lSesy-14" style="edgeStyle=orthogonalEdgeStyle;rounded=0;orthogonalLoop=1;jettySize=auto;html=1;exitX=1;exitY=0.5;exitDx=0;exitDy=0;entryX=0.5;entryY=0;entryDx=0;entryDy=0;strokeColor=light-dark(#000000,#3333FF);" edge="1" parent="1" source="pFfIeQWjEjDmzI_lSesy-16" target="pFfIeQWjEjDmzI_lSesy-18">
          <mxGeometry relative="1" as="geometry">
            <mxPoint x="705" y="460" as="targetPoint" />
          </mxGeometry>
        </mxCell>
        <mxCell id="pFfIeQWjEjDmzI_lSesy-15" style="edgeStyle=orthogonalEdgeStyle;rounded=0;orthogonalLoop=1;jettySize=auto;html=1;exitX=0;exitY=0.5;exitDx=0;exitDy=0;entryX=0.5;entryY=0;entryDx=0;entryDy=0;strokeColor=light-dark(#000000,#3333FF);" edge="1" parent="1" source="pFfIeQWjEjDmzI_lSesy-16" target="pFfIeQWjEjDmzI_lSesy-17">
          <mxGeometry relative="1" as="geometry" />
        </mxCell>
        <mxCell id="pFfIeQWjEjDmzI_lSesy-16" value="Foloseste cheie shuffle" style="rhombus;whiteSpace=wrap;html=1;" vertex="1" parent="1">
          <mxGeometry x="535" y="400" width="120" height="120" as="geometry" />
        </mxCell>
        <mxCell id="pFfIeQWjEjDmzI_lSesy-17" value="Extragere mesaj folosind standard LSB + shuffle" style="rounded=0;whiteSpace=wrap;html=1;" vertex="1" parent="1">
          <mxGeometry x="405" y="540" width="135" height="60" as="geometry" />
        </mxCell>
        <mxCell id="pFfIeQWjEjDmzI_lSesy-18" value="Extragere mesaj folosind standard LSB + shuffle" style="rounded=0;whiteSpace=wrap;html=1;" vertex="1" parent="1">
          <mxGeometry x="630" y="540" width="135" height="60" as="geometry" />
        </mxCell>
        <mxCell id="pFfIeQWjEjDmzI_lSesy-19" value="&lt;font style=&quot;color: light-dark(rgb(0, 0, 0), rgb(153, 153, 255));&quot;&gt;DA&lt;/font&gt;" style="text;html=1;align=center;verticalAlign=middle;resizable=0;points=[];autosize=1;strokeColor=none;fillColor=none;" vertex="1" parent="1">
          <mxGeometry x="645" y="340" width="40" height="30" as="geometry" />
        </mxCell>
        <mxCell id="pFfIeQWjEjDmzI_lSesy-20" value="&lt;font style=&quot;color: light-dark(rgb(0, 0, 0), rgb(153, 153, 255));&quot;&gt;DA&lt;/font&gt;" style="text;html=1;align=center;verticalAlign=middle;resizable=0;points=[];autosize=1;strokeColor=none;fillColor=none;" vertex="1" parent="1">
          <mxGeometry x="485" y="428" width="40" height="30" as="geometry" />
        </mxCell>
        <mxCell id="pFfIeQWjEjDmzI_lSesy-21" value="&lt;font style=&quot;color: light-dark(rgb(0, 0, 0), rgb(153, 153, 255));&quot;&gt;NU&lt;/font&gt;" style="text;html=1;align=center;verticalAlign=middle;resizable=0;points=[];autosize=1;strokeColor=none;fillColor=none;" vertex="1" parent="1">
          <mxGeometry x="655" y="430" width="40" height="30" as="geometry" />
        </mxCell>
      </root>
    </mxGraphModel>
  </diagram>
</mxfile>
